<?xml version="1.0" standalone="no"?>
<!DOCTYPE svg PUBLIC "-//W3C//DTD SVG 20010904//EN"
 "http://www.w3.org/TR/2001/REC-SVG-20010904/DTD/svg10.dtd">
<svg version="1.0" xmlns="http://www.w3.org/2000/svg"
 width="603.000000pt" height="603.000000pt" viewBox="0 0 603.000000 603.000000"
 preserveAspectRatio="xMidYMid meet">
<metadata>
Created by potrace 1.11, written by Peter Selinger 2001-2013
</metadata>
<g transform="translate(0.000000,603.000000) scale(0.100000,-0.100000)"
fill="#000000" stroke="none">
<path d="M230 4992 l0 -1040 308 3 c335 3 387 9 451 56 93 67 105 136 105 589
0 323 -4 373 -33 433 -28 59 -55 85 -109 108 l-46 20 51 23 c104 49 135 126
137 346 2 242 -14 341 -66 404 -66 80 -132 93 -507 95 l-291 2 0 -1039z m518
759 c33 -18 42 -73 39 -254 l-2 -169 -28 -24 c-26 -22 -37 -24 -128 -24 l-100
0 1 245 1 245 98 -4 c54 -2 107 -9 119 -15z m-11 -726 c24 -10 34 -23 42 -52
15 -51 15 -645 0 -696 -14 -51 -45 -63 -157 -63 l-87 1 -3 413 -2 413 87 -2
c49 -1 102 -7 120 -14z"/>
<path d="M1577 5554 c-1 -1 -33 -4 -72 -7 -146 -12 -205 -65 -221 -199 -4 -29
-7 -285 -8 -568 l-1 -515 -77 -155 c-115 -232 -188 -473 -213 -705 -4 -33 -9
-73 -11 -90 -5 -41 -5 -334 0 -365 3 -14 7 -50 10 -80 4 -30 8 -64 10 -75 2
-11 6 -38 10 -60 14 -79 66 -272 96 -355 17 -47 60 -146 97 -220 84 -172 86
-188 19 -185 l-45 2 -3 -94 c-4 -122 -1 -129 51 -126 22 1 42 -1 42 -5 1 -4 2
-259 4 -567 2 -484 5 -566 18 -603 47 -124 144 -176 338 -181 64 -2 88 1 91
11 2 7 4 58 3 113 l-1 100 -59 6 c-62 6 -99 22 -112 49 -4 8 -7 232 -8 497
l-2 482 88 -87 c48 -48 128 -118 178 -157 l90 -70 1 -472 0 -473 135 0 135 0
0 438 c0 378 2 441 15 460 26 35 27 88 5 132 -29 56 -29 220 0 267 28 47 93
61 172 37 30 -9 38 -62 38 -260 0 -148 3 -194 13 -195 6 -1 61 -2 120 -3 l109
-1 -4 270 c-4 225 -7 278 -22 316 -17 47 -17 47 7 73 44 47 43 121 -1 169 -9
10 -51 43 -93 72 -150 105 -287 263 -369 425 -36 71 -83 198 -94 252 -3 13
-10 48 -16 78 -6 30 -13 111 -15 180 -6 246 52 467 175 662 63 101 128 181
139 173 50 -30 587 -18 592 14 0 3 2 80 2 171 l2 164 35 7 c19 4 64 10 101 13
l66 6 1 -66 c3 -278 64 -329 399 -326 198 1 277 36 309 137 l17 54 46 -32 c71
-50 203 -185 260 -267 99 -140 175 -323 206 -490 13 -73 13 -287 -1 -376 -51
-318 -239 -616 -503 -794 -62 -42 -84 -63 -96 -93 -27 -67 -4 -128 59 -157 62
-29 97 -18 216 70 112 81 260 234 336 345 165 242 244 492 248 785 2 130 -1
167 -19 275 -25 154 -95 345 -170 466 -19 31 -35 61 -35 66 0 5 24 9 53 9 88
1 185 13 227 30 79 32 107 89 117 239 3 50 6 91 7 92 2 3 81 -115 109 -162
113 -193 215 -477 242 -675 4 -25 9 -61 12 -80 3 -19 7 -46 9 -60 10 -71 3
-344 -11 -425 -2 -16 -7 -48 -10 -70 -22 -159 -86 -356 -170 -530 -58 -120
-170 -304 -193 -319 -5 -3 -27 0 -48 8 -60 20 -199 14 -254 -12 -52 -24 -69
-38 -93 -72 -17 -24 -17 -24 -17 28 0 28 -3 53 -7 53 -42 7 -236 3 -240 -5 -5
-7 -8 -1916 -4 -1958 1 -5 61 -8 134 -8 l133 0 0 240 c-1 132 0 240 2 240 2 0
17 -14 34 -31 47 -47 96 -61 210 -61 123 0 194 43 219 129 17 64 17 45 18 628
l1 530 61 75 c165 202 301 453 384 706 26 80 63 224 70 279 3 17 7 40 9 52 24
116 35 402 21 528 -11 104 -16 144 -19 161 -2 11 -7 39 -11 64 -11 73 -44 198
-80 305 l-34 100 0 635 c0 615 1 635 20 667 30 48 113 66 180 39 38 -16 39
-34 42 -691 l2 -640 133 -1 132 -1 -1 686 c-1 563 -3 696 -15 740 -31 118 -94
156 -259 156 -120 0 -164 -14 -215 -66 l-38 -39 2 47 1 48 -125 0 -125 0 0
-549 0 -548 -25 32 c-45 59 -153 185 -171 200 -17 14 -19 38 -19 341 -1 356
-7 411 -54 472 -46 60 -122 80 -311 80 -197 1 -276 -16 -327 -70 -37 -39 -49
-75 -54 -173 -7 -112 -12 -134 -27 -122 -7 5 -43 19 -82 32 -38 13 -74 27 -78
31 -5 4 -10 32 -13 63 -8 119 -34 170 -107 205 -80 39 -338 47 -474 15 -64
-15 -132 -97 -133 -161 0 -12 -3 -24 -7 -26 -5 -3 -54 -8 -110 -11 l-102 -7
-7 38 c-18 98 -75 156 -170 174 -76 15 -324 14 -389 -1 -80 -18 -125 -63 -150
-148 -5 -18 -12 -145 -15 -263 0 -9 -23 -27 -52 -42 -29 -14 -72 -38 -95 -52
l-43 -26 -2 148 c0 81 -2 153 -3 158 -14 91 -19 114 -31 137 -15 28 -65 70
-99 82 -34 12 -287 29 -298 20z m1067 -254 c18 -17 17 -18 -40 -35 -33 -9 -66
-18 -74 -20 -8 -2 -28 -8 -43 -14 -37 -14 -37 -14 -37 9 0 37 23 70 54 79 44
12 118 2 140 -19z m-917 6 c11 -4 25 -14 29 -24 4 -9 8 -106 9 -214 2 -174 0
-198 -14 -203 -9 -2 -60 -4 -114 -3 l-98 1 1 202 c2 217 6 239 53 248 31 5
108 1 134 -7z m2794 -25 c23 -19 24 -24 27 -196 3 -144 1 -175 -10 -168 -7 4
-55 36 -107 70 -52 35 -99 64 -103 65 -8 3 -11 59 -9 156 2 67 33 92 114 92
49 0 71 -5 88 -19z m-1383 -451 c-1 -184 -4 -260 -12 -261 -22 -1 -82 -7 -137
-13 l-55 -6 0 262 1 263 40 5 c22 3 68 7 101 8 l62 3 0 -261z m352 241 c34 -1
118 -16 126 -23 7 -4 11 -25 9 -46 -1 -20 0 -42 2 -48 3 -7 45 -11 124 -10
108 0 119 2 119 18 0 22 18 19 117 -21 l68 -28 1 -312 1 -311 -21 14 c-12 9
-53 35 -93 58 l-72 43 -3 145 -3 145 -110 0 c-60 1 -115 -1 -121 -3 -8 -2 -11
-32 -9 -88 1 -46 -2 -87 -7 -90 -4 -3 -32 1 -61 9 -57 17 -138 32 -149 29 -9
-2 -9 18 -9 310 0 114 2 212 5 217 4 5 22 5 43 0 21 -4 40 -8 43 -8z m-815
-121 l0 -80 -55 7 c-168 21 -310 1 -358 -50 -51 -54 -56 -84 -58 -362 -2 -143
-3 -267 -4 -275 0 -8 -28 -44 -61 -80 -147 -160 -266 -385 -324 -608 -61 -239
-53 -558 21 -794 25 -78 109 -262 155 -337 60 -99 173 -229 281 -322 67 -58
72 -69 34 -69 -35 -1 -101 -35 -135 -71 l-32 -34 1 30 c5 75 13 70 -122 70
l-123 0 -5 -155 -5 -155 -84 81 -83 81 -2 74 -1 73 -59 2 c-46 1 -62 6 -72 20
-7 11 -18 25 -24 31 -23 28 -28 66 -26 237 0 109 -3 180 -9 184 -5 4 -49 7
-97 7 -48 0 -89 3 -91 5 -6 6 -65 204 -72 240 -36 185 -48 297 -47 450 1 94 5
164 17 240 2 14 6 45 10 70 18 119 81 334 136 458 12 30 17 33 44 27 67 -14
96 -16 227 -16 168 -1 237 12 283 53 54 47 66 102 72 321 l6 187 -122 0 c-90
0 -121 -3 -122 -12 0 -7 -2 -73 -3 -146 -3 -164 -9 -174 -107 -175 -75 0 -109
14 -109 47 0 35 119 187 250 318 103 104 144 133 176 127 25 -4 34 3 34 30 0
23 10 35 59 70 33 22 62 41 65 41 3 0 25 14 50 30 81 55 317 157 456 198 19 5
35 10 35 11 0 1 0 -35 0 -79z m1745 -261 c41 -32 87 -68 103 -82 l27 -24 0
-160 c0 -192 -4 -216 -37 -234 -26 -14 -125 -18 -156 -6 -32 12 -38 57 -38
297 -1 300 -2 283 14 274 6 -4 46 -33 87 -65z m-1757 -19 c8 -7 11 -67 8 -162
-1 -21 -6 -38 -12 -38 -6 0 -53 -20 -104 -45 -52 -25 -98 -46 -102 -45 -11 0
-5 232 6 263 10 25 26 33 81 39 38 4 114 -3 123 -12z m-1103 -29 c0 -6 -4 -13
-10 -16 -5 -3 -10 1 -10 9 0 9 5 16 10 16 6 0 10 -4 10 -9z m1987 -372 c66
-20 73 -24 67 -43 -12 -42 -31 -50 -105 -50 -63 0 -74 3 -90 23 -12 14 -19 39
-19 63 l0 41 36 -6 c20 -4 70 -16 111 -28z m-874 -89 c7 -25 -3 -31 -58 -33
-48 -2 -48 1 5 31 44 26 47 26 53 2z m1908 -2447 c9 -9 -56 -72 -143 -137 -41
-30 -41 -30 -38 38 2 46 23 82 58 100 27 14 108 14 123 -1z m49 -668 c0 -393
-3 -418 -57 -431 -65 -17 -125 -1 -156 42 -16 22 -18 49 -18 267 0 133 0 260
0 282 1 37 5 42 59 77 31 21 80 56 107 77 28 22 53 40 58 40 4 1 7 -159 7
-354z"/>
<path d="M3056 3764 c-189 -46 -364 -191 -440 -367 -41 -95 -51 -147 -50 -267
1 -161 39 -272 133 -390 100 -125 216 -197 386 -237 50 -12 183 -10 248 4 390
81 612 485 473 862 -42 115 -159 253 -269 319 -100 60 -188 85 -312 88 -70 1
-132 -3 -169 -12z m251 -379 c151 -63 214 -253 127 -385 -37 -55 -46 -65 -94
-95 -67 -42 -168 -47 -241 -12 -64 31 -76 40 -113 90 -33 43 -55 127 -49 183
18 172 210 286 370 219z"/>
<path d="M530 2502 c-198 -11 -274 -55 -317 -182 -16 -48 -18 -90 -18 -335 0
-264 1 -283 21 -326 42 -90 117 -152 309 -253 229 -121 223 -111 225 -422 1
-316 -4 -330 -111 -340 -67 -7 -117 11 -131 44 -7 17 -11 126 -12 282 l-1 255
-145 0 -145 0 0 -295 c0 -331 9 -394 66 -463 59 -71 138 -91 364 -90 256 0
341 33 385 149 29 78 34 159 34 484 -1 348 -4 363 -99 455 -46 46 -99 80 -219
145 -174 93 -219 126 -234 169 -6 15 -9 112 -8 215 l1 188 28 24 c52 44 197
31 213 -20 11 -33 12 -50 13 -221 l1 -161 143 2 c78 1 144 2 147 3 8 2 4 366
-4 426 -23 168 -77 231 -216 255 -66 11 -207 17 -290 12z"/>
<path d="M3173 2164 c-18 -9 -42 -31 -53 -49 -40 -65 -738 -1471 -747 -1505
-5 -19 -8 -42 -8 -50 1 -8 3 -27 3 -41 1 -14 18 -44 38 -67 67 -78 56 -77 805
-76 508 0 663 3 694 13 82 27 135 87 140 160 3 41 -24 118 -85 241 -55 110
-204 416 -445 915 -214 444 -215 444 -268 464 -36 14 -35 14 -74 -5z"/>
<path d="M5237 1985 c-133 -36 -159 -101 -159 -400 -1 -104 3 -206 7 -225 23
-105 85 -157 295 -245 129 -54 160 -73 176 -110 16 -40 20 -298 4 -339 -14
-39 -104 -55 -177 -32 -33 10 -43 57 -43 192 0 68 -3 124 -7 125 -5 0 -64 1
-133 1 l-124 1 1 -159 c2 -244 13 -298 68 -356 42 -46 117 -61 300 -61 270 -1
339 29 372 163 12 51 15 504 3 557 -17 78 -67 121 -230 200 -219 105 -219 105
-235 140 -12 25 -16 62 -14 150 1 109 3 118 26 141 22 22 31 24 94 20 96 -5
103 -14 107 -133 l4 -95 129 0 130 0 -2 123 c-3 240 -32 305 -154 341 -58 18
-372 18 -438 1z"/>
</g>
</svg>
